<?xml version="1.0" encoding="utf-8"?>
<!-- Generator: Adobe Illustrator 16.0.0, SVG Export Plug-In . SVG Version: 6.00 Build 0)  -->
<!DOCTYPE svg PUBLIC "-//W3C//DTD SVG 1.1//EN" "http://www.w3.org/Graphics/SVG/1.1/DTD/svg11.dtd">
<svg version="1.1" id="Layer_1" xmlns="http://www.w3.org/2000/svg" xmlns:xlink="http://www.w3.org/1999/xlink" x="0px" y="0px"
	 width="164.501px" height="45.999px" viewBox="307.5 78 164.501 45.999" enable-background="new 307.5 78 164.501 45.999"
	 xml:space="preserve">
<g>
	<path fill="none" d="M308.507,121.395c0-13.888,0-27.777,0-41.665c54.164,0,108.328,0,162.493,0c0,13.888,0,27.777,0,41.665
		C416.835,121.395,362.671,121.395,308.507,121.395z M331.848,105.65c0.945,0,1.744,0.057,2.531-0.019
		c0.583-0.056,0.737,0.184,0.777,0.68c0.104,1.292-0.176,2.481-0.939,3.536c-1.179,1.629-2.834,1.93-4.711,1.738
		c-1.88-0.195-3.552-1.417-4.088-3.196c-0.46-1.53-0.701-3.104-0.914-4.689c-0.385-2.865,0.124-5.677,0.35-8.506
		c0.118-1.486,0.19-2.987,0.742-4.396c0.694-1.771,1.681-3.126,3.744-3.66c3.648-0.943,7.019,2.549,7.276,5.558
		c0.054,0.623,0.125,1.246,0.125,1.87c0,0.567,0.208,0.821,0.792,0.813c1.839-0.022,3.68-0.05,5.519-0.013
		c0.89,0.017,1.115-0.362,1.104-1.191c-0.035-2.498-0.064-5,0.028-7.497c0.061-1.625,0.169-3.246,0.119-4.882
		c-0.335-0.201-0.688-0.163-1.028-0.199c-2.003-0.212-4.021,0.079-6.022-0.165c-0.475-0.058-0.618,0.207-0.62,0.613
		c-0.003,0.61-0.001,1.219-0.001,1.949c-1.063-0.686-1.704-1.676-2.71-2.132c-2.761-1.25-5.711-1.404-8.662-1.159
		c-2.34,0.195-4.3,1.49-6.273,2.65c-2.91,1.711-4.977,4.124-6.167,7.312c-1.302,3.483-1.635,7.077-1.404,10.746
		c0.272,4.31,1.164,8.46,3.694,12.061c1.458,2.074,3.132,4.004,5.511,5.105c2.076,0.961,4.168,1.709,6.54,1.872
		c2.838,0.196,5.247-0.571,7.54-2.067c0.656-0.429,1.325-0.837,2.03-1.281c0.234,0.732-0.104,1.408,0.229,2.123
		c2.201-0.004,4.439,0.103,6.709-0.071c0.021-0.38,0.048-0.653,0.05-0.927c0.033-3.957,0-7.913-0.178-11.866
		c-0.036-0.783,0.211-1.039,0.994-1.017c0.884,0.024,1.797,0.168,2.673-0.193c0-1.807-0.027-3.573,0.013-5.338
		c0.017-0.736-0.228-0.959-0.967-0.922c-2.251,0.114-4.505,0.187-6.759,0.222c-2.117,0.032-4.235-0.012-6.352-0.001
		c-0.601,0.004-1.269,0.054-1.283,0.875C331.826,101.817,331.848,103.65,331.848,105.65z M411.045,95.768
		c-1.01-0.975-1.704-1.882-2.84-2.27c-2.755-0.942-5.158-0.098-7.305,1.531c-2.152,1.634-2.855,4.149-3.282,6.652
		c-0.802,4.699-0.591,9.39,0.713,13.992c0.319,1.125,0.793,2.205,1.591,3.12c1.618,1.854,3.719,1.865,5.922,1.693
		c1.596-0.124,2.805-0.887,3.902-1.952c0.232-0.225,0.377-0.596,0.802-0.605c0.085,0.418,0.2,0.821,0.238,1.233
		c0.041,0.451,0.276,0.589,0.686,0.577c3.325-0.093,6.659,0.207,9.979-0.248c0.492-0.067,0.704-0.279,0.664-0.722
		c-0.113-1.253,0.135-2.491,0.143-3.738c0.014-1.874,0.022-1.873-1.86-2.043c-0.059-0.006-0.112-0.074-0.27-0.182
		c-0.547-10.299-0.022-20.695-0.611-31.188c-3.689,0.041-7.312-0.175-11.02,0.194c-0.255,2.231-0.327,4.384-0.229,6.582
		c0.896,0.118,1.67,0.069,2.55-0.081C410.761,90.776,410.697,93.149,411.045,95.768z M467.973,111.607c-2.319,0-4.464,0.001-6.608,0
		c-0.564-0.001-0.902,0.255-1.025,0.822c-0.131,0.602-0.482,1.078-0.983,1.425c-1.488,1.031-4.04,1.071-4.223-1.635
		c-0.014-0.206-0.078-0.408-0.114-0.614c-0.28-1.642-0.039-1.952,1.596-2.064c0.14-0.011,0.278-0.01,0.417-0.012
		c2.186-0.031,4.374,0.049,6.554-0.152c1.541-0.143,3.106,0.052,4.661-0.272c0.018-0.346,0.063-0.622,0.043-0.894
		c-0.138-1.9-0.188-3.814-0.467-5.692c-0.238-1.593-0.556-3.205-1.438-4.618c-1.304-2.091-3.193-3.218-5.585-3.796
		c-2.843-0.687-5.543-0.853-8.339,0.296c-2.637,1.083-4.232,3.063-5.426,5.462c-0.979,1.964-0.921,4.159-1.165,6.291
		c-0.467,4.069,0.41,7.787,2.693,11.164c0.688,1.021,1.637,1.746,2.818,2.209c1.462,0.57,2.98,0.596,4.498,0.679
		c2.505,0.136,5.034,0.179,7.288-1.117C465.994,117.461,467.795,115.098,467.973,111.607z M427.316,119.377
		c4.54,0.342,8.997,0.107,13.548,0.164c0.124-1.435,0.267-2.805,0.356-4.177c0.117-1.802,0.104-1.818-1.624-2.109
		c-0.598-0.103-0.909-0.324-0.918-0.996c-0.04-2.808-0.17-5.614-0.181-8.422c-0.029-6.87-0.009-13.74-0.009-20.609
		c0-0.374,0-0.747,0-1.235c-3.643,0.069-7.202-0.179-10.793,0.458c-0.105,2.018-0.083,4.018-0.003,6.047
		c0.84,0.061,1.618,0.117,2.336,0.168c0.349,8.343,0.096,16.572,0.263,24.854c-0.729,0.034-1.315,0.114-1.896,0.078
		c-0.772-0.049-1.076,0.312-1.079,1.022C427.313,116.173,427.316,117.726,427.316,119.377z M385.144,96.713
		c0-0.779-0.009-1.326,0.002-1.872c0.025-1.22-0.127-1.42-1.347-1.396c-2.944,0.06-5.886,0.159-8.828,0.247
		c-0.204,0.006-0.421-0.004-0.606,0.194c-0.448,2.034-0.049,4.089-0.029,6.102c0.405,0.248,0.761,0.191,1.099,0.204
		c1.226,0.052,1.253,0.046,1.233,1.305c-0.055,3.432,0.207,6.853,0.23,10.282c0.003,0.405,0.102,0.832-0.146,1.148
		c-0.599,0-1.152,0.018-1.704-0.006c-0.424-0.019-0.681,0.132-0.686,0.57c-0.022,2.067-0.034,4.135,0.349,6.262
		c4.541-0.162,9.028-0.321,13.586-0.485c0.071-1.961,0.271-3.816,0.2-5.688c-0.02-0.487-0.244-0.649-0.719-0.657
		c-0.718-0.013-1.435-0.089-2.2-0.143c-0.155-1.74-0.431-3.427-0.356-5.122c0.053-1.195,0.062-2.447,0.841-3.485
		c1.362-1.817,3.091-3.097,5.391-3.375c0.826-0.1,1.032-0.427,1.026-1.19c-0.016-1.941,0.037-3.882,0.061-5.823
		c0.003-0.237,0.074-0.492-0.272-0.76C389.409,92.966,387.196,94.396,385.144,96.713z M365.688,113.123
		c-0.315-0.394-0.239-0.86-0.255-1.302c-0.127-3.359,0.112-6.72-0.046-10.083c-0.104-2.209-0.217-4.431,0.134-6.638
		c0.111-0.697-0.314-0.799-0.876-0.797c-1.63,0.006-3.261-0.041-4.891-0.012c-2.148,0.039-4.301-0.082-6.443,0.169
		c-0.36,0.042-0.829-0.049-0.838,0.526c-0.03,1.689-0.087,3.379,0.039,5.195c0.783,0,1.469,0.03,2.151-0.008
		c0.86-0.048,1.292,0.233,1.206,1.179c-0.06,0.65,0.018,1.314,0.048,1.969c0.144,3.08,0.284,6.16,0.183,9.247
		c-0.03,0.911-0.421,1.145-1.2,1.112c-1.005-0.041-1.975,0.201-3.046,0.302c0.114,1.99-0.128,3.92,0.244,5.822
		c0.285,0.18,0.57,0.113,0.841,0.131c2.02,0.13,4.017-0.406,6.016-0.309c3.025,0.149,6.008-0.373,9.018-0.352
		c0.637,0.006,1.03-0.267,0.978-1.014c-0.095-1.347-0.144-2.698-0.199-4.048c-0.024-0.593-0.33-0.883-0.903-0.926
		C367.129,113.232,366.411,113.179,365.688,113.123z M355.497,83.001c-0.227,2.525-0.225,4.873-0.094,7.224
		c0.039,0.699,0.423,0.928,1.098,0.924c2.527-0.013,5.056-0.009,7.583,0.036c0.7,0.011,0.982-0.396,1.021-0.926
		c0.173-2.368,0.438-4.741,0.034-7.252C361.946,82.701,358.783,83.136,355.497,83.001z"/>
	<path d="M331.848,105.65c0-2-0.022-3.832,0.009-5.665c0.014-0.821,0.682-0.872,1.283-0.875c2.117-0.011,4.235,0.033,6.352,0.001
		c2.254-0.036,4.508-0.108,6.759-0.222c0.74-0.038,0.983,0.187,0.967,0.922c-0.04,1.765-0.013,3.531-0.013,5.338
		c-0.875,0.361-1.789,0.218-2.673,0.193c-0.783-0.022-1.03,0.233-0.994,1.017c0.179,3.953,0.211,7.909,0.178,11.866
		c-0.002,0.273-0.029,0.547-0.05,0.927c-2.271,0.174-4.509,0.067-6.709,0.071c-0.333-0.715,0.004-1.391-0.229-2.123
		c-0.705,0.444-1.374,0.853-2.03,1.281c-2.293,1.496-4.701,2.264-7.54,2.067c-2.371-0.163-4.464-0.911-6.54-1.872
		c-2.379-1.102-4.052-3.031-5.511-5.105c-2.53-3.601-3.422-7.751-3.694-12.061c-0.231-3.669,0.102-7.263,1.404-10.746
		c1.191-3.188,3.257-5.601,6.167-7.312c1.973-1.16,3.933-2.456,6.273-2.65c2.951-0.246,5.901-0.092,8.662,1.159
		c1.006,0.456,1.647,1.446,2.71,2.132c0-0.73-0.002-1.339,0.001-1.949c0.002-0.406,0.145-0.671,0.62-0.613
		c2.001,0.244,4.019-0.048,6.022,0.165c0.34,0.036,0.693-0.001,1.028,0.199c0.05,1.636-0.059,3.257-0.119,4.882
		c-0.092,2.497-0.062,4.999-0.028,7.497c0.011,0.829-0.214,1.208-1.104,1.191c-1.839-0.038-3.679-0.009-5.519,0.013
		c-0.585,0.008-0.792-0.246-0.792-0.813c0-0.624-0.071-1.247-0.125-1.87c-0.257-3.009-3.628-6.5-7.276-5.558
		c-2.062,0.534-3.05,1.888-3.744,3.66c-0.551,1.409-0.624,2.91-0.742,4.396c-0.226,2.829-0.735,5.641-0.35,8.506
		c0.213,1.586,0.453,3.159,0.914,4.689c0.536,1.779,2.208,3.001,4.088,3.196c1.877,0.191,3.533-0.109,4.711-1.738
		c0.763-1.055,1.044-2.244,0.939-3.536c-0.04-0.496-0.194-0.735-0.777-0.68C333.591,105.707,332.792,105.65,331.848,105.65z"/>
	<path d="M411.045,95.768c-0.348-2.618-0.284-4.991-0.229-7.454c-0.88,0.149-1.654,0.199-2.55,0.081
		c-0.098-2.198-0.025-4.351,0.229-6.582c3.708-0.369,7.33-0.154,11.02-0.194c0.589,10.493,0.064,20.89,0.611,31.188
		c0.157,0.108,0.211,0.177,0.27,0.183c1.882,0.169,1.874,0.169,1.86,2.043c-0.008,1.247-0.256,2.485-0.143,3.738
		c0.039,0.442-0.172,0.654-0.664,0.722c-3.319,0.455-6.654,0.153-9.979,0.248c-0.409,0.012-0.645-0.126-0.686-0.578
		c-0.038-0.411-0.153-0.814-0.238-1.232c-0.425,0.009-0.569,0.381-0.802,0.605c-1.098,1.065-2.307,1.828-3.902,1.952
		c-2.203,0.172-4.304,0.161-5.922-1.693c-0.798-0.915-1.271-1.995-1.591-3.12c-1.304-4.603-1.515-9.293-0.713-13.992
		c0.427-2.503,1.13-5.018,3.282-6.652c2.146-1.629,4.55-2.474,7.305-1.531C409.341,93.886,410.035,94.793,411.045,95.768z
		 M411.012,107.066c0.038-0.656,0.104-1.314,0.106-1.972c0.007-1.141,0.013-2.287-0.324-3.397c-0.17-0.558-0.456-0.972-1.069-1.154
		c-1.366-0.409-2.575,0.249-2.913,1.671c-0.635,2.664-0.498,5.368-0.324,8.064c0.055,0.854,0.32,1.68,0.749,2.462
		c0.446,0.811,1.069,1.149,1.949,1.034c0.915-0.121,1.437-0.682,1.617-1.628C411.123,110.464,410.923,108.759,411.012,107.066z"/>
	<path d="M467.973,111.607c-0.178,3.49-1.979,5.854-4.807,7.48c-2.253,1.296-4.782,1.253-7.287,1.117
		c-1.518-0.083-3.036-0.108-4.498-0.679c-1.182-0.464-2.131-1.19-2.818-2.209c-2.283-3.378-3.16-7.095-2.694-11.164
		c0.245-2.132,0.188-4.327,1.165-6.292c1.194-2.398,2.79-4.379,5.427-5.461c2.796-1.149,5.496-0.983,8.338-0.296
		c2.393,0.578,4.282,1.704,5.586,3.795c0.883,1.415,1.2,3.026,1.438,4.619c0.279,1.878,0.329,3.791,0.467,5.692
		c0.02,0.271-0.025,0.548-0.043,0.894c-1.555,0.324-3.12,0.129-4.661,0.272c-2.181,0.201-4.368,0.121-6.554,0.152
		c-0.139,0.002-0.277,0.001-0.417,0.012c-1.636,0.111-1.876,0.422-1.596,2.064c0.036,0.205,0.101,0.408,0.114,0.614
		c0.183,2.706,2.734,2.666,4.223,1.635c0.5-0.347,0.853-0.823,0.983-1.425c0.123-0.568,0.46-0.824,1.025-0.823
		C463.509,111.608,465.653,111.607,467.973,111.607z M459.494,105.146c0.257-1.279,0.103-2.367-0.119-3.454
		c-0.239-1.165-1.238-2.083-2.322-2.123c-1.091-0.04-1.991,0.738-2.221,2.061c-0.201,1.151-0.128,2.323-0.11,3.517
		C456.37,105.146,457.912,105.146,459.494,105.146z"/>
	<path d="M427.316,119.377c0-1.651-0.003-3.204,0.002-4.756c0.001-0.711,0.306-1.072,1.078-1.023
		c0.58,0.036,1.166-0.044,1.896-0.078c-0.167-8.282,0.087-16.511-0.263-24.854c-0.718-0.051-1.496-0.108-2.336-0.168
		c-0.08-2.03-0.103-4.029,0.003-6.047c3.591-0.637,7.15-0.388,10.793-0.458c0,0.489,0,0.862,0,1.235c0,6.87-0.02,13.74,0.009,20.609
		c0.011,2.808,0.142,5.614,0.181,8.422c0.009,0.672,0.32,0.894,0.919,0.996c1.727,0.291,1.74,0.309,1.623,2.109
		c-0.09,1.373-0.231,2.743-0.356,4.177C436.313,119.484,431.856,119.719,427.316,119.377z"/>
	<path d="M385.144,96.713c2.052-2.317,4.265-3.747,7.125-3.687c0.347,0.268,0.276,0.522,0.273,0.759
		c-0.024,1.941-0.077,3.883-0.061,5.824c0.006,0.763-0.2,1.09-1.027,1.19c-2.299,0.278-4.027,1.558-5.39,3.375
		c-0.779,1.037-0.787,2.289-0.841,3.485c-0.075,1.695,0.201,3.382,0.356,5.121c0.766,0.054,1.482,0.131,2.2,0.144
		c0.475,0.008,0.699,0.169,0.718,0.657c0.071,1.871-0.129,3.727-0.199,5.688c-4.559,0.164-9.045,0.323-13.586,0.484
		c-0.383-2.126-0.372-4.193-0.349-6.261c0.005-0.438,0.261-0.589,0.686-0.571c0.551,0.024,1.104,0.006,1.705,0.006
		c0.247-0.316,0.148-0.742,0.146-1.148c-0.024-3.429-0.287-6.851-0.231-10.282c0.02-1.259-0.007-1.253-1.233-1.304
		c-0.338-0.014-0.693,0.043-1.099-0.204c-0.021-2.013-0.419-4.069,0.028-6.103c0.185-0.199,0.403-0.188,0.605-0.193
		c2.943-0.088,5.885-0.187,8.828-0.248c1.221-0.024,1.373,0.177,1.348,1.396C385.135,95.387,385.144,95.934,385.144,96.713z"/>
	<path d="M365.688,113.123c0.722,0.056,1.44,0.109,2.159,0.165c0.573,0.044,0.878,0.334,0.902,0.926
		c0.055,1.35,0.104,2.701,0.199,4.048c0.052,0.747-0.341,1.021-0.978,1.014c-3.01-0.021-5.993,0.501-9.018,0.353
		c-2-0.099-3.997,0.438-6.017,0.309c-0.271-0.017-0.556,0.049-0.841-0.132c-0.372-1.902-0.129-3.832-0.244-5.82
		c1.071-0.103,2.041-0.345,3.046-0.304c0.778,0.032,1.169-0.201,1.199-1.112c0.102-3.087-0.039-6.167-0.182-9.247
		c-0.03-0.654-0.108-1.318-0.048-1.968c0.086-0.947-0.345-1.228-1.206-1.179c-0.682,0.037-1.368,0.007-2.151,0.007
		c-0.126-1.816-0.069-3.506-0.039-5.195c0.01-0.575,0.479-0.483,0.839-0.526c2.142-0.251,4.295-0.131,6.443-0.169
		c1.629-0.028,3.26,0.018,4.89,0.012c0.562-0.002,0.987,0.1,0.877,0.798c-0.351,2.206-0.237,4.427-0.134,6.637
		c0.158,3.363-0.082,6.724,0.046,10.083C365.45,112.263,365.374,112.729,365.688,113.123z"/>
	<path d="M355.497,83.001c3.286,0.135,6.449-0.3,9.641,0.004c0.404,2.511,0.139,4.884-0.034,7.252
		c-0.038,0.531-0.32,0.938-1.021,0.925c-2.527-0.043-5.055-0.047-7.583-0.035c-0.674,0.004-1.06-0.225-1.098-0.924
		C355.271,87.874,355.27,85.526,355.497,83.001z"/>
	<path fill="none" d="M411.012,107.066c-0.089,1.692,0.111,3.397-0.21,5.08c-0.18,0.946-0.702,1.507-1.616,1.628
		c-0.881,0.115-1.503-0.223-1.949-1.034c-0.429-0.782-0.694-1.608-0.749-2.462c-0.174-2.695-0.311-5.399,0.323-8.064
		c0.339-1.422,1.548-2.08,2.914-1.671c0.613,0.183,0.899,0.597,1.069,1.155c0.337,1.109,0.331,2.256,0.324,3.397
		C411.115,105.752,411.05,106.41,411.012,107.066z"/>
	<path fill="none" d="M459.494,105.146c-1.582,0-3.124,0-4.772,0c-0.018-1.193-0.091-2.365,0.109-3.517
		c0.23-1.322,1.131-2.1,2.222-2.061c1.084,0.04,2.083,0.958,2.322,2.123C459.597,102.778,459.752,103.866,459.494,105.146z"/>
</g>
</svg>
